<svg width="18" height="18" viewBox="0 0 18 18" fill="none" xmlns="http://www.w3.org/2000/svg">
<path opacity="0.8" d="M9 0C4.5 0 0 0.473684 0 3.78947V12.7895C0 14.0609 0.853988 15.1673 2.10431 15.7235C2.69089 15.9845 2.98601 16.9065 2.49494 17.32L2.36504 17.4294C2.2921 17.4909 2.25 17.5814 2.25 17.6767V17.6767C2.25 17.8553 2.39474 18 2.57328 18H3.89839C4.28693 18 4.66298 17.8628 4.96018 17.6125L5.63333 17.0456C6.35451 16.4383 7.26704 16.1053 8.20987 16.1053H9.79013C10.733 16.1053 11.6455 16.4383 12.3667 17.0456L13.0398 17.6125C13.337 17.8628 13.7131 18 14.1016 18H15.4267C15.6053 18 15.75 17.8553 15.75 17.6767V17.6767C15.75 17.5814 15.7079 17.4909 15.635 17.4294L15.5051 17.32C15.014 16.9065 15.3091 15.9845 15.8957 15.7235C17.146 15.1673 18 14.0609 18 12.7895V3.78947C18 0.473684 13.5 0 9 0ZM9 1.89474C9.04756 1.89474 9.09479 1.8948 9.14168 1.89493C11.1008 1.90042 10.9591 2.8421 9 2.8421V2.8421C7.04092 2.8421 6.89924 1.90042 8.85832 1.89493C8.90521 1.8948 8.95244 1.89474 9 1.89474ZM2.25 6.15789C2.25 5.37307 2.88623 4.73684 3.67105 4.73684H6.45395C7.23877 4.73684 7.875 5.37307 7.875 6.15789V6.15789C7.875 6.94272 7.23877 7.57895 6.45395 7.57895H3.67105C2.88623 7.57895 2.25 6.94272 2.25 6.15789V6.15789ZM15.75 12.7895C15.75 13.5758 14.9963 14.2105 14.0625 14.2105H3.9375C3.00375 14.2105 2.25 13.5758 2.25 12.7895V12.7895C2.25 10.9582 3.73453 9.47368 5.56579 9.47368H12.4342C14.2655 9.47368 15.75 10.9582 15.75 12.7895V12.7895ZM15.75 6.15789C15.75 6.94272 15.1138 7.57895 14.3289 7.57895H11.5461C10.7612 7.57895 10.125 6.94272 10.125 6.15789V6.15789C10.125 5.37307 10.7612 4.73684 11.5461 4.73684H14.3289C15.1138 4.73684 15.75 5.37307 15.75 6.15789V6.15789Z" fill="black" fill-opacity="0.5"/>
</svg>
