<svg width="45" height="45" viewBox="0 0 45 45" fill="none" xmlns="http://www.w3.org/2000/svg">
<rect x="0.1" y="0.1" width="44.8" height="44.8" rx="2.9" fill="" stroke-width="0.2"/>
<path d="M36.0085 23.2714C36.0085 29.4549 30.227 36 22.5185 36C15.5808 36 9.02853 30.6 9.02853 22.8802C8.64308 17.8714 12.112 9 22.5185 9C32.925 9 36.3939 17.4857 36.0085 23.2714Z" fill="" fill-opacity="0.95" stroke="white" stroke-width="0.5"/>
<path d="M13.3313 12.5208L13.3313 12.5208L12.1758 13.5871L22.5269 13.6036H32.8654L32.0775 12.8016C30.4552 11.182 28.2408 9.95857 25.84 9.3468C25.0468 9.14875 23.8848 9.04117 22.715 9.02669C21.5453 9.01221 20.3704 9.09086 19.5516 9.26422C17.2191 9.7601 15.1571 10.8344 13.3313 12.5208Z" fill="black" stroke="#FAFAFA" stroke-width="0.5"/>
<path d="M9.15433 20.4938C9.15432 20.4938 9.15431 20.4939 9.1543 20.494C9.08718 20.9345 9.05344 21.7839 9.05344 22.6162C9.05344 23.4488 9.08721 24.2601 9.15416 24.6252L9.26801 25.175H22.5184H35.7681L35.8825 24.5063C35.8825 24.5062 35.8825 24.506 35.8825 24.5059C35.9496 24.0578 35.9834 23.2796 35.9834 22.5C35.9834 21.7204 35.9496 20.9422 35.8825 20.4941C35.8825 20.4939 35.8825 20.4938 35.8825 20.4937L35.7681 19.825H22.5184H9.26874L9.15433 20.4938Z" fill="black" stroke="#FBFBFB" stroke-width="0.5"/>
<path d="M13.3625 32.4043L13.3626 32.4044C15.1635 34.1225 17.2334 35.2171 19.6233 35.7224L19.6233 35.7224C20.2955 35.8653 21.3264 35.9455 22.3649 35.9581C23.4034 35.9708 24.447 35.9159 25.1446 35.7898C27.5171 35.3519 30.362 33.8357 32.0278 32.1183C32.0278 32.1183 32.0278 32.1182 32.0278 32.1182L32.8134 31.3H22.5185H22.5185L12.2108 31.3168L13.3625 32.4043Z" fill="black" stroke="white" stroke-width="0.5"/>
</svg>
