<svg width="45" height="45" viewBox="0 0 45 45" fill="none" xmlns="http://www.w3.org/2000/svg">
<rect x="0.1" y="0.1" width="44.8" height="44.8" rx="2.9" fill="#3E3E3E" stroke="#3E3E3E" stroke-width="0.2"/>
<path d="M36.0089 23.2714C36.0089 29.4549 30.2275 36 22.519 36C15.5813 36 9.02902 30.6 9.02902 22.8802C8.64357 17.8714 12.1124 9 22.519 9C32.9255 9 36.3944 17.4857 36.0089 23.2714Z" fill="#F8F8F8"/>
<path d="M19.5469 9.23985C18.5697 9.44674 17.5577 9.7445 16.5996 10.1602C15.1883 10.7727 13.894 11.6066 13.0005 12.5001L12.1124 13.6121L22.5274 13.6287H33.063L33.0005 13.5001L32.5005 13.0001C31.788 12.2888 31.0268 11.6445 30.0005 11.0001C28.6849 10.1741 27.0566 9.42233 25.8467 9.32266C24.2548 8.92518 21.1896 8.89206 19.5469 9.23985Z" fill="#090909"/>
<path d="M19.4844 9.11128C18.5072 9.31817 17.4952 9.61593 16.5371 10.0317C15.1258 10.6441 13.894 11.6066 13.0005 12.5001L12.0786 13.6121L22.4649 13.5001H33.0005L32.938 13.3715L32.438 12.8715C31.7255 12.1602 31.0005 11.5001 29.938 10.8715C28.6224 10.0455 26.9941 9.29376 25.7842 9.19409C24.1923 8.79661 21.1271 8.76349 19.4844 9.11128Z" fill="#090909"/>
<path d="M9.01563 21.0001C8.88073 21.8851 9.01081 23.8951 9.14571 24.6301L9.24611 25.2001L22.5345 25.2001L35.8398 25.2001L36 24.5001C36.0767 23.4901 36 22.0001 36.0156 20.5001L35.7969 19.8001H22.5345H9.2383L9.01563 21.0001Z" fill="black"/>
<path d="M13.3373 32.5864C14.3506 33.648 16.9805 35.2963 19.4068 35.8337C20.7738 36.1383 23.5932 36.1741 25.0114 35.9054C27.4207 35.4396 30.3084 33.8273 32 32.0001L32.8373 31.0864H22.3458L12 31.0001L13.3373 32.5864Z" fill="black"/>
</svg>
