<?xml version="1.0" standalone="no"?>
<!DOCTYPE svg PUBLIC "-//W3C//DTD SVG 20010904//EN"
 "http://www.w3.org/TR/2001/REC-SVG-20010904/DTD/svg10.dtd">
<svg version="1.0" xmlns="http://www.w3.org/2000/svg"
 width="160.000000pt" height="160.000000pt" viewBox="0 0 160.000000 160.000000"
 preserveAspectRatio="xMidYMid meet">
<metadata>
Created by potrace 1.15, written by Peter Selinger 2001-2017
</metadata>
<g transform="translate(0.000000,160.000000) scale(0.100000,-0.100000)"
fill="#000000" stroke="none">
<path d="M624 1585 c-138 -30 -260 -95 -368 -197 l-71 -67 615 -1 614 0 -49
51 c-96 98 -227 172 -369 209 -94 24 -275 26 -372 5z"/>
<path d="M6 934 c-8 -59 -8 -227 0 -276 l7 -38 787 0 787 0 7 46 c8 60 8 208
0 268 l-7 46 -787 0 -787 0 -7 -46z"/>
<path d="M256 212 c107 -102 230 -167 372 -197 80 -17 245 -19 328 -4 141 26
310 116 409 218 l49 51 -614 0 -615 -1 71 -67z"/>
</g>
</svg>
