<svg width="40" height="41" viewBox="0 0 40 41" fill="none" xmlns="http://www.w3.org/2000/svg">
<path fill-rule="evenodd" clip-rule="evenodd" d="M39.9523 13.3851L38.2359 26.5677L40 41L27.692 38.2335L13.7458 40.8203L0.0720051 38.3232L1.60701 25.7638L1.53357 25.7541L1.73788 24.4748L1.7629 24.4787L1.79674 24.2044L0 10.4127L7.47751 13.4885C9.91299 13.4947 13.5 14 12 14C13 14 12 14 8.38352 14.9943L8.2511 14.926L8.00051 14.7892L1.61049 12.4795L3.13668 24.1995L3.07756 24.6771L13.2387 25.8954L6.74577 14.3356L7.47751 14.6001L7.95249 14.7718L8.40156 15.0037L14.8422 27.2108L14.8753 27.7868L14.8836 27.8575L13.6275 39.4824L13.7439 39.5039L27.7169 36.9111L38.4548 39.3251L36.8967 26.5803L36.8717 26.7766L26.5609 25.5042L26.4456 25.5218L27.5896 36.919L26.2662 37.046L25.1293 25.7142L15.3337 26.6795L14.6078 26.7666L14.3141 26.3223L24.9994 24.4231L24.9313 23.7386L26.1499 10.9623L19.5443 13.4885C19.7829 12.9454 23.6193 11.2275 23.7396 10.6475L27.6388 8.83406L39.9523 13.3851ZM15.3337 26.6795L14.9973 27.6829L14.8248 27.3518L15.9272 25.8954L15.3337 26.6795ZM26.3165 24.2293L26.5461 24.1966L37.0342 25.4895L38.501 14.2331L27.699 10.241L27.5476 10.3116L26.2663 23.7424L26.3165 24.2293ZM1.53857 37.2745L12.3165 39.2432L13.547 27.8626L13.4956 27.4232L13.0362 27.4905L2.92219 25.9641L1.53857 37.2745Z" fill="black"/>
<path d="M18.3936 21.9292L18.3934 21.9294C18.2545 22.0519 18.0932 22.1127 17.907 22.1127H13.1688C12.9826 22.1127 12.8219 22.0519 12.6821 21.9293C12.5426 21.8067 12.4792 21.6708 12.4792 21.5185V17.3534C12.4792 17.2011 12.5424 17.0654 12.6821 16.9426L12.6161 16.8675L12.6821 16.9426C12.8219 16.82 12.9828 16.7591 13.1688 16.7591H17.907C18.0932 16.7591 18.2544 16.8197 18.3933 16.9424L18.3936 16.9427C18.5338 17.0655 18.5969 17.2011 18.5969 17.3534V21.5185C18.5969 21.6708 18.5336 21.8066 18.3936 21.9292Z" fill="black" stroke="black" stroke-width="0.2"/>
<path d="M6.70336 5.10205L6.80161 5.08345C6.774 4.93751 6.80349 4.80278 6.89392 4.67354L6.89393 4.67354L6.89452 4.67268C8.98035 1.6247 12.0016 0.1 15.9724 0.1C17.014 0.1 18.0627 0.277424 19.1192 0.632588C20.1766 0.988247 21.1293 1.46441 21.976 2.05997L21.9761 2.05997C22.8209 2.65409 23.5089 3.38139 24.0414 4.24358C24.5716 5.10197 24.8358 6.00072 24.8359 6.94109C24.8359 7.5547 24.736 8.12698 24.5361 8.65857L24.5361 8.65864C24.3344 9.19655 24.108 9.62996 23.8586 9.96137L23.8586 9.96143C23.6097 10.2927 23.2555 10.6304 22.7934 10.9738C22.3273 11.3197 21.9538 11.5685 21.67 11.721L21.6699 11.7211C21.3815 11.8766 20.9816 12.0811 20.469 12.3354C19.9147 12.6086 19.4518 12.9953 19.0805 13.4937L19.0805 13.4937C18.7174 13.9812 18.5181 14.3921 18.5181 14.7162C18.5181 14.8832 18.4513 15.0486 18.3061 15.2133L18.306 15.2134C18.1641 15.375 18.0062 15.4488 17.8284 15.4488H13.0902C12.9364 15.4488 12.7965 15.3685 12.6706 15.1735L12.6706 15.1734C12.541 14.9731 12.4794 14.7748 12.4794 14.5769V13.796C12.4794 12.8688 12.8913 11.9877 13.7332 11.151L13.7332 11.151C14.5796 10.3094 15.5098 9.68962 16.5223 9.29019L16.523 9.28994C17.304 8.97572 17.8722 8.64568 18.2156 8.29551C18.5661 7.93832 18.7376 7.47184 18.7376 6.90662C18.7376 6.37094 18.3983 5.91592 17.7717 5.53679L17.7717 5.53676C17.142 5.1563 16.4164 4.96728 15.5976 4.96728C14.7294 4.96728 14 5.13739 13.4145 5.48428L13.4145 5.48425L13.4123 5.48564C12.9387 5.78318 12.2262 6.45808 11.2795 7.49837C11.1257 7.66434 10.948 7.74377 10.741 7.74377C10.6042 7.74377 10.4572 7.70414 10.299 7.61935L7.06549 5.45289C7.06544 5.45285 7.06538 5.45281 7.06532 5.45277C6.9124 5.34933 6.82881 5.22609 6.80159 5.08332L6.70336 5.10205ZM6.70336 5.10205C6.73641 5.2754 6.83841 5.42006 7.00948 5.53573L22.0336 1.97818C21.1784 1.37667 20.2169 0.896303 19.1511 0.537806C18.085 0.179431 17.0255 0 15.9724 0C11.9715 0 8.91801 1.53872 6.81199 4.61621C6.70681 4.76652 6.67051 4.92845 6.70336 5.10205Z" fill="black" stroke="black" stroke-width="0.2"/>
</svg>
