<svg width="45" height="45" viewBox="0 0 45 45" fill="" xmlns="http://www.w3.org/2000/svg">
<rect width="45" height="45" rx="3" fill=""/>
<path d="M39.008 27.2136V29.7399H36.9945V27.2136H35.9729V33.9009H36.9945V31.2012H39.008V33.9009H40V27.2136H39.008Z" fill="white"/>
<path d="M22.3665 27.9814C22.2037 27.387 21.8779 27.065 21.5522 27.065C21.2265 27.065 20.886 27.387 20.7379 27.9814L19.1241 33.9257H20.1901L20.5455 32.5139H22.6182L22.9735 33.9257H24.0395L22.3665 27.9814ZM20.8268 31.1765L21.4338 28.7245C21.4634 28.6502 21.4782 28.6502 21.5078 28.6502C21.5374 28.6502 21.5818 28.6502 21.5818 28.7245L22.1889 31.1765H20.8268Z" fill="white"/>
<path d="M10.4632 26.0248C9.98941 26.0248 9.6933 26.4458 9.47122 27.2879L8.18315 32.3158L6.88028 27.2632C6.67301 26.4458 6.36209 26 5.88832 26C5.44416 26 5 26.4954 5 27.6594V33.8762H5.99196V27.8824L7.30964 32.8607C7.4725 33.5789 7.78341 34 8.18315 34C8.61251 34 8.89381 33.5789 9.05667 32.8607L10.3743 27.8824V33.9505H11.3663V27.7337C11.3515 26.5697 10.9073 26.0248 10.4632 26.0248Z" fill="white"/>
<path d="M13.1133 32.4892C13.0688 32.4892 13.0096 32.4149 13.0096 32.3158V31.1269H15.4969V29.7647H13.0096V28.7492C13.0096 28.6749 13.054 28.5759 13.1133 28.5759H15.5858V27.1641H12.6247C12.2694 27.1641 12.0325 27.6347 12.0325 28.1548V32.8359C12.0325 33.3313 12.2842 33.8266 12.6247 33.8266H15.5858V32.4149H13.1133V32.4892Z" fill="white"/>
<path d="M17.259 33.9009V28.7988C17.259 28.7245 17.3034 28.6254 17.3627 28.6254H19.8351V27.2136H16.8741C16.5187 27.2136 16.2819 27.6842 16.2819 28.2043V33.8762L17.259 33.9009Z" fill="white"/>
<path d="M35.3214 30.582C35.3214 28.2539 34.7143 27.1641 33.2042 27.1641H32.8489C31.3387 27.1641 30.7317 28.2786 30.7317 30.582C30.7317 32.8607 31.3387 34 32.8489 34H33.1746C34.7143 33.9505 35.3214 32.8607 35.3214 30.582ZM33.1746 32.5882H32.8489C32.0346 32.5882 31.694 31.969 31.694 30.582C31.694 29.2446 31.9753 28.5759 32.8489 28.5759H33.1746C34.0185 28.5759 34.3294 29.2446 34.3294 30.582C34.3294 31.9443 34.0185 32.5882 33.1746 32.5882Z" fill="white"/>
<path d="M27.963 26.1734H25.9791C24.4986 26.1734 23.9064 27.4365 23.9064 29.5913C23.9064 29.9381 23.936 30.2601 23.9508 30.5325C24.1136 32.0681 24.6614 33.0093 26.0383 33.0093H26.4825V33.8762H27.4745V33.0093H27.9038C29.2955 33.0093 29.8433 32.0681 29.9914 30.5325C30.021 30.2601 30.0358 29.9381 30.0358 29.5913C30.021 27.4365 29.414 26.1734 27.963 26.1734ZM26.4529 31.6223H26.0087C25.3277 31.6223 25.0908 31.2012 24.9427 30.5077C24.8983 30.2601 24.8983 29.9133 24.8983 29.5666C24.8983 28.1548 25.2981 27.5604 25.8607 27.5604H26.4677V31.6223H26.4529ZM28.9994 30.582C28.8514 31.2508 28.5997 31.6966 27.9334 31.6966H27.4893V27.6099H28.0963C28.6589 27.6099 29.0586 28.2043 29.0586 29.6161C29.0438 29.9876 29.0438 30.2848 28.9994 30.582Z" fill="white"/>
<path d="M23.4166 7.02794V14.7644C23.4166 15.1262 23.1388 15.3767 22.8054 15.3767H21.8888C21.8332 15.3767 21.8054 15.4323 21.8054 15.4602V21.9443C22.0276 21.9443 22.2499 22 22.4999 22C26.6388 22 30 18.6327 30 14.4861C30 10.6736 27.1388 7.4732 23.4166 7.02794ZM23.2499 18.6048C22.7221 18.6048 22.3332 18.1596 22.3332 17.6865C22.3332 17.1577 22.7777 16.7681 23.2499 16.7681C23.7777 16.7681 24.1666 17.2134 24.1666 17.6865C24.2221 18.1874 23.7777 18.6048 23.2499 18.6048ZM25.4444 18.6048C24.9166 18.6048 24.5277 18.1596 24.5277 17.6865C24.5277 17.1577 24.9721 16.7681 25.4444 16.7681C25.9722 16.7681 26.3611 17.2134 26.3611 17.6865C26.3611 18.1596 25.9999 18.6048 25.4444 18.6048ZM27.6666 18.6048C27.1388 18.6048 26.7499 18.1596 26.7499 17.6865C26.7499 17.1577 27.1944 16.7681 27.6666 16.7681C28.1944 16.7681 28.5833 17.2134 28.5833 17.6865C28.5833 18.1596 28.1944 18.6048 27.6666 18.6048Z" fill="white"/>
<path d="M22.5001 7C18.3612 7 15 10.3673 15 14.5139C15 18.1595 17.5278 21.1372 20.9168 21.8329V15.0704C20.9168 14.7643 21.1945 14.5139 21.4723 14.4582H21.7779H22.389C22.4446 14.4582 22.4723 14.4025 22.4723 14.3747L22.5001 7ZM21.0557 13.1781C20.5279 13.1781 20.139 12.7328 20.139 12.2597C20.139 11.7309 20.5834 11.3413 21.0557 11.3413C21.5834 11.3413 21.9723 11.7866 21.9723 12.2597C21.9723 12.7328 21.5557 13.1781 21.0557 13.1781Z" fill="white"/>
</svg>
