<svg version="1.0" xmlns="http://www.w3.org/2000/svg"
 width="516.000000pt" height="259.000000pt" viewBox="0 0 516.000000 259.000000"
 preserveAspectRatio="xMidYMid meet">
<g transform="translate(0.000000,259.000000) scale(0.100000,-0.100000)"
fill="#000000" stroke="none">
<path d="M2660 1300 l0 -1210 1215 0 1215 0 0 1210 0 1210 -1215 0 -1215 0 0
-1210z m1898 285 c86 -26 143 -91 166 -187 l6 -28 -89 0 c-81 0 -90 2 -96 20
-16 52 -85 77 -137 49 -69 -37 -76 -227 -10 -280 53 -41 132 -16 148 46 6 24
8 25 95 25 86 0 89 -1 89 -23 0 -38 -49 -125 -88 -157 -100 -83 -274 -78 -374
10 -112 98 -130 302 -38 428 68 95 202 134 328 97z m-1454 -12 c2 -10 21 -88
42 -173 l37 -155 41 170 41 170 128 3 127 3 0 -296 0 -295 -85 0 -85 0 -1 178
-1 177 -35 -125 c-19 -69 -41 -149 -50 -178 l-15 -53 -66 3 -67 3 -47 170 -46
170 -4 -170 -3 -170 -85 0 -85 0 -3 280 c-1 154 0 285 3 292 3 10 38 13 129
13 110 0 125 -2 130 -17z m1016 -63 l0 -80 -80 0 -80 0 0 -215 0 -215 -90 0
-90 0 0 215 0 215 -80 0 -80 0 0 80 0 80 250 0 250 0 0 -80z"/>
</g>
</svg>
