<svg width="45" height="45" viewBox="0 0 45 45" fill="none" xmlns="http://www.w3.org/2000/svg">
<rect width="45" height="45" rx="3" fill="#3E3E3E"/>
<path d="M5.5 13H39.5V30H5.5V13Z" fill="white"/>
<path d="M5 21.5V40.7C5 40.8657 5.13431 41 5.3 41H24.5H43.7C43.8657 41 44 40.8657 44 40.7V21.5V2.3C44 2.13431 43.8657 2 43.7 2H24.5H5.3C5.13431 2 5 2.13431 5 2.3V21.5ZM35.4617 16.907C36.842 17.326 37.7568 18.3736 38.1259 19.9207L38.1448 20.0093C38.1847 20.196 38.0423 20.3719 37.8514 20.3719H36.7938C35.4938 20.3719 35.3494 20.3397 35.2531 20.0496C34.9963 19.2116 33.8889 18.8087 33.0543 19.2599C31.9469 19.8562 31.8346 22.9182 32.8938 23.7723C33.7444 24.4331 35.0123 24.0302 35.2691 23.031C35.3654 22.6442 35.3975 22.6281 36.7938 22.6281C38.1741 22.6281 38.2222 22.6442 38.2222 22.9988C38.2222 23.6112 37.4358 25.0132 36.8099 25.5289C35.2049 26.8665 32.4123 26.7859 30.8074 25.3678C29.0099 23.7884 28.721 20.5008 30.1975 18.4702C31.2889 16.9393 33.4395 16.3107 35.4617 16.907ZM12.1259 17.1004C12.158 17.2616 12.463 18.5186 12.8 19.8884L13.1035 21.1649C13.1765 21.4721 13.6133 21.4726 13.687 21.1656L14.0519 19.6467L14.656 17.1314C14.6878 16.9991 14.8046 16.9048 14.9406 16.9016L16.7642 16.8587L18.4954 16.8176C18.6638 16.8136 18.8025 16.9491 18.8025 17.1175V21.5806V26.0347C18.8025 26.2004 18.6682 26.3347 18.5025 26.3347H17.4383H16.3724C16.2074 26.3347 16.0733 26.2014 16.0724 26.0364L16.058 23.4661L16.0537 22.7049C16.0518 22.3661 15.5713 22.3017 15.4802 22.6281V22.6281C15.1753 23.7401 14.8222 25.0293 14.6778 25.4967L14.5016 26.1217C14.4638 26.2559 14.3385 26.3463 14.1992 26.34L13.3778 26.3025L12.5203 26.2639C12.3904 26.2581 12.2791 26.1692 12.2446 26.0439L11.5481 23.5145L11.3508 22.782C11.2606 22.4475 10.7693 22.5067 10.7612 22.853L10.7457 23.5145L10.7027 25.9594C10.6998 26.123 10.5664 26.2541 10.4028 26.2541H9.33333H8.26595C8.10152 26.2541 7.96772 26.1218 7.96597 25.9573L7.92099 21.7417C7.90494 19.2599 7.92099 17.1488 7.96914 17.0359C8.01728 16.8748 8.57901 16.8264 10.0395 16.8264C11.8049 16.8264 12.0457 16.8587 12.1259 17.1004ZM28.4321 18.1157V19.105C28.4321 19.2706 28.2978 19.405 28.1321 19.405H27.1481H26.1642C25.9985 19.405 25.8642 19.5393 25.8642 19.705V22.8698V26.0347C25.8642 26.2004 25.7299 26.3347 25.5642 26.3347H24.4198H23.2753C23.1096 26.3347 22.9753 26.2004 22.9753 26.0347V22.8698V19.705C22.9753 19.5393 22.841 19.405 22.6753 19.405H21.6914H20.7074C20.5417 19.405 20.4074 19.2706 20.4074 19.105V18.1157V17.1264C20.4074 16.9608 20.5417 16.8264 20.7074 16.8264H24.4198H28.1321C28.2978 16.8264 28.4321 16.9608 28.4321 17.1264V18.1157Z" fill="#3E3E3E"/>
</svg>
