<svg width="45" height="45" viewBox="0 0 45 45" fill="none" xmlns="http://www.w3.org/2000/svg">
<rect width="45" height="45" rx="3" fill="#3E3E3E"/>
<path fill-rule="evenodd" clip-rule="evenodd" d="M33.7501 15.1987C34.9448 15.024 36.0384 15.3074 36.7752 15.9949C37.456 16.6168 37.802 17.5002 37.7128 18.4383C37.5563 20.173 36.6969 21.5696 34.2859 23.8715L30.3456 24.0025C30.3456 24.0025 33.0806 21.5587 34.1184 20.3696C34.7883 19.5953 35.0784 18.7659 34.7993 18.2096C34.6208 17.8602 34.2304 17.6859 33.7504 17.7078V15.1983L33.7501 15.1987ZM25.68 16.573V18.8315L29.0955 18.4715V16.104L25.68 16.5734V16.573ZM22.8896 26.7953V16.9553L25.2335 16.6274V26.7956H22.8896V26.7953ZM13.6139 18.2312V20.1406L16.2034 19.8568V17.8821L13.6139 18.2315V18.2312ZM11.482 26.7953V18.5259L13.279 18.2753V26.7953H11.482ZM6.21338 19.2459V20.9368L10.8569 20.4353V18.613L6.21338 19.2459ZM7.69782 21.0349V26.7953H9.39453V20.8606L7.69782 21.0349V21.0349ZM13.6139 23.49V21.5478L15.3103 21.4059V23.4025L13.6139 23.49ZM13.6139 24.8862V26.7953H16.2034V24.8093L13.6139 24.8859V24.8862ZM25.68 22.8462V20.5443L27.9236 20.3481V22.7262L25.68 22.8462ZM25.68 24.5375V26.7953H29.0955V24.4278L25.68 24.5372V24.5375ZM16.8843 26.7953V17.784L18.927 17.5002V26.7953H16.8843V26.7953ZM19.3064 24.7225V26.7953H22.2646V24.6353L19.3064 24.7225ZM29.8546 24.4062L29.8656 26.7956H37.8578V24.1768L29.8546 24.4062V24.4062ZM29.9663 20.1183C29.8322 17.3912 30.9707 15.7221 33.2925 15.2421L33.3035 17.7949C32.8128 17.9912 32.3328 18.3625 32.4441 19.9002L29.9659 20.1183H29.9663Z" fill="white"/>
</svg>
